<?xml version="1.0" encoding="utf-8"?>
<!-- Generator: Adobe Illustrator 21.0.0, SVG Export Plug-In . SVG Version: 6.00 Build 0)  -->
<svg version="1.1" xmlns="http://www.w3.org/2000/svg" xmlns:xlink="http://www.w3.org/1999/xlink" x="0px" y="0px"
	 viewBox="0 0 1366 768" style="enable-background:new 0 0 1366 768;" xml:space="preserve">
<style type="text/css">
	.st0{fill:#046296;}
	.st1{fill:#FFFFFF;}
	.st2{fill:#FF0000;}
</style>
<g id="base">
	<g>
		<rect x="359.5" y="116.5" class="st0" width="499" height="499"/>
		<path d="M858,117v498H360V117H858 M859,116H359v500h500V116L859,116z"/>
	</g>
</g>
<g id="boxes">
	<g id="box4">
		<rect x="359.5" y="116.5" class="st1" width="249" height="249"/>
		<path d="M608,117v248H360V117H608 M609,116H359v250h250V116L609,116z"/>
	</g>
	<g id="box3">
		<rect x="609.5" y="116.5" class="st1" width="249" height="249"/>
		<path d="M858,117v248H610V117H858 M859,116H609v250h250V116L859,116z"/>
	</g>
	<g id="box2_1_">
		<rect x="359.5" y="366.5" class="st1" width="249" height="249"/>
		<path d="M608,367v248H360V367H608 M609,366H359v250h250V366L609,366z"/>
	</g>
	<g id="box1_2_">
		<rect x="609.5" y="366.5" class="st1" width="249" height="249"/>
		<path d="M858,367v248H610V367H858 M859,366H609v250h250V366L859,366z"/>
	</g>
</g>
</svg>
